<svg id="Layer_1" data-name="Layer 1" xmlns="http://www.w3.org/2000/svg" viewBox="0 0 49.6 68.2"><defs><style>.cls-1{fill:#3fa9f5;}.cls-2{fill:#0066ca;}</style></defs><title>icons-001</title><path class="cls-1" d="M22.9,48.8h0C17,51.4,11.1,53.9,5.2,56.5V10.6L22.9,48.8h0Z" transform="translate(-5.2 -2.7)"/><path class="cls-2" d="M5.3,6.4l28.5,61V40.1l-3.7-7.2,3.7-1.5V22.1l-0.7-1.3-7.8,2.6L20,12.9l8.1-2.1C26.6,8,25.2,5.3,23.7,2.7,17.6,3.9,11.4,5.2,5.3,6.4h0Z" transform="translate(-5.2 -2.7)"/><path class="cls-1" d="M35.8,17.4c6.3-2,12.7-3.9,19-5.9-0.2,15.8-.4,31.5-0.6,47.3-6.1,4-12.3,8-18.4,12.1,0-17.9,0-35.7,0-53.5h0Z" transform="translate(-5.2 -2.7)"/></svg>